# xmcd CD database file
#
# Track frame offsets:
#	150
#	11510
#	33165
#
# Disc length: 679 seconds
#
# Revision: 0
# Processed by: cddbd v1.5.1PL0 Copyright (c) Steve Scherf et al.
# Submitted via: CDex 1.40Beta9
#
DISCID=1502a503
DTITLE=hot hip trampoline school - アイスクリーム
DYEAR=2000
DGENRE=Ska
TTITLE0=アイスクリーム
TTITLE1=ラパッパ
TTITLE2=papa's walk （DEMO DEATH）
EXTD=YEAR: 2000 ID3G: 21
EXTT0=
EXTT1=
EXTT2=
PLAYORDER=
